<svg xmlns="http://www.w3.org/2000/svg" viewBox="0 0 120 120" role="img" aria-label="집중이담 앱 아이콘">
  <defs>
    <linearGradient id="symbolBg" x1="15" x2="93" y1="12" y2="100" gradientUnits="userSpaceOnUse">
      <stop offset="0" stop-color="#f8f9fb"/>
      <stop offset="1" stop-color="#e8ebf0"/>
    </linearGradient>
    <linearGradient id="symbolMark" x1="28" x2="84" y1="28" y2="92" gradientUnits="userSpaceOnUse">
      <stop offset="0" stop-color="#557896"/>
      <stop offset="1" stop-color="#2f4f68"/>
    </linearGradient>
  </defs>
  <rect x="10" y="10" width="100" height="100" rx="28" fill="url(#symbolBg)"/>
  <circle cx="60" cy="60" r="34" fill="#fffefa" opacity="0.78"/>
  <circle cx="36" cy="37" r="3.4" fill="#d8c7a3"/>
  <circle cx="44" cy="30" r="2.4" fill="#8aa0ae"/>
  <circle cx="32" cy="51" r="2.2" fill="#c8ced6"/>
  <path d="M35 69c8-18 25-22 41-13" fill="none" stroke="#cad5dc" stroke-linecap="round" stroke-width="5" opacity="0.62"/>
  <path d="M60 32a28 28 0 0 1 27 20" fill="none" stroke="url(#symbolMark)" stroke-linecap="round" stroke-width="8"/>
  <path d="M60 88a28 28 0 0 1-27-20" fill="none" stroke="url(#symbolMark)" stroke-linecap="round" stroke-width="8"/>
  <path d="M91 42l-3 13-11-8" fill="none" stroke="#2f4f68" stroke-linecap="round" stroke-linejoin="round" stroke-width="7"/>
  <path d="M53 35v15" stroke="#3c5f7c" stroke-linecap="round" stroke-width="4"/>
  <ellipse cx="67" cy="42.5" rx="6" ry="7.5" fill="none" stroke="#3c5f7c" stroke-width="4"/>
  <ellipse cx="60" cy="73" rx="20" ry="5" fill="#2f4f68" opacity="0.11"/>
  <ellipse cx="60" cy="61" rx="13" ry="11" fill="#7e8f88"/>
  <path d="M52 58c4-6 14-7 20-2" fill="none" stroke="#f8f9fb" stroke-linecap="round" stroke-width="4" opacity="0.78"/>
</svg>
